<svg width="341" height="106" viewBox="0 0 341 106" fill="none" xmlns="http://www.w3.org/2000/svg">
<path d="M4.08239 34V8.54545H7.16477V31.2656H18.9972V34H4.08239ZM28.9901 34.4474C27.7803 34.4474 26.6824 34.2196 25.6964 33.7638C24.7103 33.2998 23.9273 32.6328 23.3473 31.7628C22.7673 30.8845 22.4773 29.8239 22.4773 28.581C22.4773 27.4872 22.6927 26.6006 23.1236 25.9212C23.5545 25.2334 24.1303 24.6948 24.8512 24.3054C25.5721 23.916 26.3675 23.6259 27.2376 23.4354C28.1159 23.2365 28.9983 23.0791 29.8849 22.9631C31.045 22.8139 31.9854 22.7021 32.7063 22.6275C33.4355 22.5446 33.9658 22.4079 34.2972 22.2173C34.637 22.0268 34.8068 21.6953 34.8068 21.223V21.1236C34.8068 19.8973 34.4712 18.9444 33.8001 18.2649C33.1372 17.5855 32.1304 17.2457 30.7798 17.2457C29.3795 17.2457 28.2816 17.5523 27.4862 18.1655C26.6907 18.7786 26.1314 19.4332 25.8082 20.1293L23.0241 19.1349C23.5213 17.9749 24.1842 17.0717 25.0128 16.4254C25.8497 15.7708 26.7611 15.3151 27.7472 15.0582C28.7415 14.7931 29.7192 14.6605 30.6804 14.6605C31.2936 14.6605 31.9979 14.7351 32.7933 14.8842C33.5971 15.0251 34.3718 15.3192 35.1175 15.7667C35.8716 16.2141 36.4972 16.8894 36.9943 17.7926C37.4915 18.6958 37.7401 19.9055 37.7401 21.4219V34H34.8068V31.4148H34.6577C34.4588 31.8291 34.1274 32.2724 33.6634 32.7447C33.1993 33.217 32.582 33.6188 31.8114 33.9503C31.0408 34.2817 30.1004 34.4474 28.9901 34.4474ZM29.4375 31.8125C30.5975 31.8125 31.5753 31.5846 32.3707 31.1289C33.1745 30.6732 33.7794 30.0849 34.1854 29.364C34.5997 28.6431 34.8068 27.8849 34.8068 27.0895V24.4048C34.6825 24.554 34.4091 24.6907 33.9865 24.815C33.5722 24.931 33.0916 25.0346 32.5447 25.1257C32.0062 25.2086 31.48 25.2831 30.9663 25.3494C30.4608 25.4074 30.0507 25.4571 29.7358 25.4986C28.9735 25.598 28.2609 25.7596 27.598 25.9833C26.9434 26.1987 26.4131 26.526 26.0071 26.9652C25.6094 27.3961 25.4105 27.9844 25.4105 28.7301C25.4105 29.7493 25.7875 30.5199 26.5415 31.0419C27.3039 31.5556 28.2692 31.8125 29.4375 31.8125ZM56.6166 19.1847L53.9816 19.9304C53.8159 19.4912 53.5715 19.0645 53.2483 18.6502C52.9334 18.2276 52.5026 17.8796 51.9557 17.6062C51.4088 17.3327 50.7087 17.196 49.8552 17.196C48.6869 17.196 47.7133 17.4653 46.9344 18.0039C46.1638 18.5342 45.7785 19.2095 45.7785 20.0298C45.7785 20.759 46.0436 21.3349 46.574 21.7575C47.1043 22.18 47.9329 22.5322 49.0597 22.8139L51.8936 23.5099C53.6005 23.9242 54.8724 24.5581 55.7093 25.4116C56.5461 26.2567 56.9646 27.3464 56.9646 28.6804C56.9646 29.7741 56.6497 30.7519 56.02 31.6136C55.3985 32.4754 54.5285 33.1548 53.4099 33.652C52.2913 34.1491 50.9904 34.3977 49.5072 34.3977C47.56 34.3977 45.9484 33.9751 44.6723 33.13C43.3963 32.2848 42.5884 31.0502 42.2487 29.4261L45.0328 28.7301C45.2979 29.7576 45.7992 30.5282 46.5367 31.0419C47.2824 31.5556 48.256 31.8125 49.4575 31.8125C50.8247 31.8125 51.9101 31.5225 52.7139 30.9425C53.5259 30.3542 53.9319 29.6499 53.9319 28.8295C53.9319 28.1667 53.6999 27.6115 53.2359 27.1641C52.7719 26.7083 52.0593 26.3686 51.0981 26.1449L47.9163 25.3991C46.1679 24.9848 44.8836 24.3427 44.0633 23.4727C43.2513 22.5943 42.8453 21.4964 42.8453 20.179C42.8453 19.1018 43.1477 18.1489 43.7526 17.3203C44.3657 16.4917 45.1985 15.8413 46.2508 15.369C47.3114 14.8967 48.5129 14.6605 49.8552 14.6605C51.7444 14.6605 53.2276 15.0748 54.3048 15.9034C55.3902 16.732 56.1608 17.8258 56.6166 19.1847ZM66.9979 34.4474C65.7881 34.4474 64.6902 34.2196 63.7042 33.7638C62.7182 33.2998 61.9351 32.6328 61.3551 31.7628C60.7751 30.8845 60.4851 29.8239 60.4851 28.581C60.4851 27.4872 60.7005 26.6006 61.1314 25.9212C61.5623 25.2334 62.1381 24.6948 62.859 24.3054C63.5799 23.916 64.3754 23.6259 65.2454 23.4354C66.1237 23.2365 67.0062 23.0791 67.8928 22.9631C69.0528 22.8139 69.9933 22.7021 70.7141 22.6275C71.4433 22.5446 71.9736 22.4079 72.305 22.2173C72.6448 22.0268 72.8146 21.6953 72.8146 21.223V21.1236C72.8146 19.8973 72.479 18.9444 71.8079 18.2649C71.145 17.5855 70.1383 17.2457 68.7876 17.2457C67.3873 17.2457 66.2894 17.5523 65.494 18.1655C64.6985 18.7786 64.1392 19.4332 63.8161 20.1293L61.032 19.1349C61.5291 17.9749 62.192 17.0717 63.0206 16.4254C63.8575 15.7708 64.7689 15.3151 65.755 15.0582C66.7493 14.7931 67.727 14.6605 68.6882 14.6605C69.3014 14.6605 70.0057 14.7351 70.8011 14.8842C71.6049 15.0251 72.3796 15.3192 73.1254 15.7667C73.8794 16.2141 74.505 16.8894 75.0021 17.7926C75.4993 18.6958 75.7479 19.9055 75.7479 21.4219V34H72.8146V31.4148H72.6655C72.4666 31.8291 72.1352 32.2724 71.6712 32.7447C71.2072 33.217 70.5898 33.6188 69.8192 33.9503C69.0487 34.2817 68.1082 34.4474 66.9979 34.4474ZM67.4453 31.8125C68.6054 31.8125 69.5831 31.5846 70.3786 31.1289C71.1823 30.6732 71.7872 30.0849 72.1932 29.364C72.6075 28.6431 72.8146 27.8849 72.8146 27.0895V24.4048C72.6903 24.554 72.4169 24.6907 71.9943 24.815C71.58 24.931 71.0994 25.0346 70.5526 25.1257C70.014 25.2086 69.4878 25.2831 68.9741 25.3494C68.4686 25.4074 68.0585 25.4571 67.7436 25.4986C66.9813 25.598 66.2687 25.7596 65.6058 25.9833C64.9512 26.1987 64.4209 26.526 64.0149 26.9652C63.6172 27.3961 63.4183 27.9844 63.4183 28.7301C63.4183 29.7493 63.7953 30.5199 64.5494 31.0419C65.3117 31.5556 66.277 31.8125 67.4453 31.8125ZM84.0349 8.54545V34H81.1017V8.54545H84.0349ZM92.3406 8.54545V34H89.4073V8.54545H92.3406ZM97.713 34V14.9091H100.646V34H97.713ZM99.2045 11.7273C98.6327 11.7273 98.1397 11.5326 97.7254 11.1431C97.3194 10.7537 97.1164 10.2855 97.1164 9.73864C97.1164 9.19176 97.3194 8.7236 97.7254 8.33416C98.1397 7.94472 98.6327 7.75 99.2045 7.75C99.7762 7.75 100.265 7.94472 100.671 8.33416C101.085 8.7236 101.293 9.19176 101.293 9.73864C101.293 10.2855 101.085 10.7537 100.671 11.1431C100.265 11.5326 99.7762 11.7273 99.2045 11.7273ZM111.637 34.4474C110.427 34.4474 109.329 34.2196 108.343 33.7638C107.357 33.2998 106.574 32.6328 105.994 31.7628C105.414 30.8845 105.124 29.8239 105.124 28.581C105.124 27.4872 105.339 26.6006 105.77 25.9212C106.201 25.2334 106.777 24.6948 107.498 24.3054C108.219 23.916 109.014 23.6259 109.884 23.4354C110.762 23.2365 111.645 23.0791 112.531 22.9631C113.691 22.8139 114.632 22.7021 115.353 22.6275C116.082 22.5446 116.612 22.4079 116.944 22.2173C117.283 22.0268 117.453 21.6953 117.453 21.223V21.1236C117.453 19.8973 117.118 18.9444 116.447 18.2649C115.784 17.5855 114.777 17.2457 113.426 17.2457C112.026 17.2457 110.928 17.5523 110.133 18.1655C109.337 18.7786 108.778 19.4332 108.455 20.1293L105.671 19.1349C106.168 17.9749 106.831 17.0717 107.659 16.4254C108.496 15.7708 109.408 15.3151 110.394 15.0582C111.388 14.7931 112.366 14.6605 113.327 14.6605C113.94 14.6605 114.644 14.7351 115.44 14.8842C116.244 15.0251 117.018 15.3192 117.764 15.7667C118.518 16.2141 119.144 16.8894 119.641 17.7926C120.138 18.6958 120.387 19.9055 120.387 21.4219V34H117.453V31.4148H117.304C117.105 31.8291 116.774 32.2724 116.31 32.7447C115.846 33.217 115.229 33.6188 114.458 33.9503C113.687 34.2817 112.747 34.4474 111.637 34.4474ZM112.084 31.8125C113.244 31.8125 114.222 31.5846 115.017 31.1289C115.821 30.6732 116.426 30.0849 116.832 29.364C117.246 28.6431 117.453 27.8849 117.453 27.0895V24.4048C117.329 24.554 117.056 24.6907 116.633 24.815C116.219 24.931 115.738 25.0346 115.191 25.1257C114.653 25.2086 114.126 25.2831 113.613 25.3494C113.107 25.4074 112.697 25.4571 112.382 25.4986C111.62 25.598 110.907 25.7596 110.244 25.9833C109.59 26.1987 109.06 26.526 108.654 26.9652C108.256 27.3961 108.057 27.9844 108.057 28.7301C108.057 29.7493 108.434 30.5199 109.188 31.0419C109.95 31.5556 110.916 31.8125 112.084 31.8125ZM128.674 22.5156V34H125.74V14.9091H128.574V17.892H128.823C129.27 16.9226 129.95 16.1437 130.861 15.5554C131.773 14.9588 132.949 14.6605 134.391 14.6605C135.684 14.6605 136.815 14.9257 137.784 15.456C138.753 15.978 139.507 16.7734 140.046 17.8423C140.585 18.9029 140.854 20.2453 140.854 21.8693V34H137.921V22.0682C137.921 20.5684 137.531 19.4001 136.752 18.5632C135.974 17.718 134.905 17.2955 133.546 17.2955C132.609 17.2955 131.773 17.4985 131.035 17.9045C130.306 18.3105 129.73 18.9029 129.307 19.6818C128.885 20.4607 128.674 21.4053 128.674 22.5156Z" fill="#383838"/>
<path d="M16.65 76.7C12.3833 76.7 9 75.5 6.5 73.1C4 70.6667 2.75 67.1667 2.75 62.6V54.4C2.75 49.8333 4 46.35 6.5 43.95C9 41.5167 12.3833 40.3 16.65 40.3C20.85 40.3 24.0833 41.4667 26.35 43.8C28.65 46.1333 29.8 49.3167 29.8 53.35V53.65H24.45V53.2C24.45 50.8333 23.8 48.9 22.5 47.4C21.2333 45.9 19.2833 45.15 16.65 45.15C13.9833 45.15 11.9 45.9667 10.4 47.6C8.9 49.2 8.15 51.4333 8.15 54.3V62.7C8.15 65.5333 8.9 67.7667 10.4 69.4C11.9 71.0333 13.9833 71.85 16.65 71.85C19.2833 71.85 21.2333 71.1 22.5 69.6C23.8 68.0667 24.45 66.1333 24.45 63.8V62.95H29.8V63.65C29.8 67.6833 28.65 70.8667 26.35 73.2C24.0833 75.5333 20.85 76.7 16.65 76.7ZM47.4789 76.7C45.0122 76.7 42.8122 76.2 40.8789 75.2C38.9789 74.1667 37.4789 72.7 36.3789 70.8C35.2789 68.9 34.7289 66.65 34.7289 64.05V63.3C34.7289 60.7 35.2789 58.4667 36.3789 56.6C37.4789 54.7 38.9789 53.2333 40.8789 52.2C42.8122 51.1667 45.0122 50.65 47.4789 50.65C49.9456 50.65 52.1456 51.1667 54.0789 52.2C56.0122 53.2333 57.5289 54.7 58.6289 56.6C59.7289 58.4667 60.2789 60.7 60.2789 63.3V64.05C60.2789 66.65 59.7289 68.9 58.6289 70.8C57.5289 72.7 56.0122 74.1667 54.0789 75.2C52.1456 76.2 49.9456 76.7 47.4789 76.7ZM47.4789 72.1C49.7456 72.1 51.5789 71.3833 52.9789 69.95C54.4122 68.4833 55.1289 66.4667 55.1289 63.9V63.45C55.1289 60.8833 54.4289 58.8833 53.0289 57.45C51.6289 55.9833 49.7789 55.25 47.4789 55.25C45.2456 55.25 43.4122 55.9833 41.9789 57.45C40.5789 58.8833 39.8789 60.8833 39.8789 63.45V63.9C39.8789 66.4667 40.5789 68.4833 41.9789 69.95C43.4122 71.3833 45.2456 72.1 47.4789 72.1ZM76.8906 76.7C74.8573 76.7 72.974 76.2 71.2406 75.2C69.5073 74.2 68.1073 72.7667 67.0406 70.9C66.0073 69 65.4906 66.7167 65.4906 64.05V63.3C65.4906 60.6667 66.0073 58.4 67.0406 56.5C68.074 54.6 69.4573 53.15 71.1906 52.15C72.924 51.15 74.824 50.65 76.8906 50.65C78.4906 50.65 79.824 50.85 80.8906 51.25C81.9906 51.65 82.8906 52.1667 83.5906 52.8C84.2906 53.4 84.824 54.0333 85.1906 54.7H85.9906V41H91.1406V76H86.0906V72.5H85.2906C84.6573 73.5667 83.6906 74.5333 82.3906 75.4C81.124 76.2667 79.2906 76.7 76.8906 76.7ZM78.3406 72.2C80.574 72.2 82.4073 71.4833 83.8406 70.05C85.3073 68.6167 86.0406 66.5667 86.0406 63.9V63.45C86.0406 60.8167 85.324 58.7833 83.8906 57.35C82.4573 55.9167 80.6073 55.2 78.3406 55.2C76.1406 55.2 74.3073 55.9167 72.8406 57.35C71.4073 58.7833 70.6906 60.8167 70.6906 63.45V63.9C70.6906 66.5667 71.4073 68.6167 72.8406 70.05C74.3073 71.4833 76.1406 72.2 78.3406 72.2ZM110.022 76.7C107.522 76.7 105.339 76.1833 103.472 75.15C101.605 74.0833 100.139 72.6 99.0719 70.7C98.0385 68.7667 97.5219 66.5333 97.5219 64V63.4C97.5219 60.8333 98.0385 58.6 99.0719 56.7C100.105 54.7667 101.539 53.2833 103.372 52.25C105.239 51.1833 107.389 50.65 109.822 50.65C112.189 50.65 114.255 51.1833 116.022 52.25C117.822 53.2833 119.222 54.7333 120.222 56.6C121.222 58.4667 121.722 60.65 121.722 63.15V65.1H102.772C102.839 67.2667 103.555 69 104.922 70.3C106.322 71.5667 108.055 72.2 110.122 72.2C112.055 72.2 113.505 71.7667 114.472 70.9C115.472 70.0333 116.239 69.0333 116.772 67.9L121.022 70.1C120.555 71.0333 119.872 72.0167 118.972 73.05C118.105 74.0833 116.955 74.95 115.522 75.65C114.089 76.35 112.255 76.7 110.022 76.7ZM102.822 61.15H116.472C116.339 59.2833 115.672 57.8333 114.472 56.8C113.272 55.7333 111.705 55.2 109.772 55.2C107.839 55.2 106.255 55.7333 105.022 56.8C103.822 57.8333 103.089 59.2833 102.822 61.15ZM139.671 76.7C137.038 76.7 134.704 76.2333 132.671 75.3C130.638 74.3667 129.038 73 127.871 71.2C126.738 69.3667 126.171 67.15 126.171 64.55V63.3H131.521V64.55C131.521 67.0167 132.254 68.8667 133.721 70.1C135.221 71.3333 137.204 71.95 139.671 71.95C142.171 71.95 144.054 71.4333 145.321 70.4C146.588 69.3333 147.221 67.9667 147.221 66.3C147.221 65.2 146.921 64.3 146.321 63.6C145.721 62.9 144.871 62.35 143.771 61.95C142.671 61.5167 141.354 61.1167 139.821 60.75L137.971 60.3C135.738 59.7667 133.788 59.1167 132.121 58.35C130.488 57.55 129.221 56.5 128.321 55.2C127.421 53.9 126.971 52.2333 126.971 50.2C126.971 48.1333 127.471 46.3667 128.471 44.9C129.504 43.4333 130.921 42.3 132.721 41.5C134.521 40.7 136.638 40.3 139.071 40.3C141.504 40.3 143.671 40.7167 145.571 41.55C147.504 42.3833 149.021 43.6167 150.121 45.25C151.221 46.8833 151.771 48.9333 151.771 51.4V53.2H146.421V51.4C146.421 49.9 146.104 48.6833 145.471 47.75C144.871 46.8167 144.021 46.1333 142.921 45.7C141.821 45.2667 140.538 45.05 139.071 45.05C136.938 45.05 135.271 45.5 134.071 46.4C132.904 47.2667 132.321 48.4833 132.321 50.05C132.321 51.1167 132.571 52 133.071 52.7C133.604 53.3667 134.371 53.9167 135.371 54.35C136.371 54.7833 137.621 55.1667 139.121 55.5L140.971 55.95C143.238 56.45 145.238 57.1 146.971 57.9C148.704 58.6667 150.071 59.7167 151.071 61.05C152.071 62.3833 152.571 64.1 152.571 66.2C152.571 68.3 152.038 70.1333 150.971 71.7C149.938 73.2667 148.454 74.5 146.521 75.4C144.588 76.2667 142.304 76.7 139.671 76.7ZM158.39 86V51.35H163.44V54.9H164.24C164.873 53.8 165.823 52.8167 167.09 51.95C168.39 51.0833 170.24 50.65 172.64 50.65C174.707 50.65 176.59 51.15 178.29 52.15C180.023 53.15 181.407 54.6 182.44 56.5C183.507 58.3667 184.04 60.6333 184.04 63.3V64.05C184.04 66.7167 183.523 69 182.49 70.9C181.457 72.7667 180.073 74.2 178.34 75.2C176.607 76.2 174.707 76.7 172.64 76.7C171.04 76.7 169.69 76.5 168.59 76.1C167.49 75.7 166.607 75.2 165.94 74.6C165.273 73.9667 164.74 73.3167 164.34 72.65H163.54V86H158.39ZM171.14 72.2C173.407 72.2 175.257 71.4833 176.69 70.05C178.123 68.6167 178.84 66.5667 178.84 63.9V63.45C178.84 60.8167 178.107 58.7833 176.64 57.35C175.207 55.9167 173.373 55.2 171.14 55.2C168.94 55.2 167.107 55.9167 165.64 57.35C164.207 58.7833 163.49 60.8167 163.49 63.45V63.9C163.49 66.5667 164.207 68.6167 165.64 70.05C167.107 71.4833 168.94 72.2 171.14 72.2ZM198.071 76.7C196.304 76.7 194.721 76.4 193.321 75.8C191.954 75.2 190.854 74.3167 190.021 73.15C189.221 71.9833 188.821 70.5667 188.821 68.9C188.821 67.2 189.221 65.8 190.021 64.7C190.854 63.5667 191.971 62.7167 193.371 62.15C194.804 61.5833 196.421 61.3 198.221 61.3H205.721V59.7C205.721 58.2667 205.288 57.1167 204.421 56.25C203.554 55.3833 202.221 54.95 200.421 54.95C198.654 54.95 197.304 55.3667 196.371 56.2C195.438 57.0333 194.821 58.1167 194.521 59.45L189.721 57.9C190.121 56.5667 190.754 55.3667 191.621 54.3C192.521 53.2 193.704 52.3167 195.171 51.65C196.638 50.9833 198.404 50.65 200.471 50.65C203.671 50.65 206.188 51.4667 208.021 53.1C209.854 54.7333 210.771 57.05 210.771 60.05V70.2C210.771 71.2 211.238 71.7 212.171 71.7H214.271V76H210.421C209.254 76 208.304 75.7 207.571 75.1C206.838 74.5 206.471 73.6833 206.471 72.65V72.5H205.721C205.454 73 205.054 73.5833 204.521 74.25C203.988 74.9167 203.204 75.5 202.171 76C201.138 76.4667 199.771 76.7 198.071 76.7ZM198.821 72.45C200.888 72.45 202.554 71.8667 203.821 70.7C205.088 69.5 205.721 67.8667 205.721 65.8V65.3H198.521C197.154 65.3 196.054 65.6 195.221 66.2C194.388 66.7667 193.971 67.6167 193.971 68.75C193.971 69.8833 194.404 70.7833 195.271 71.45C196.138 72.1167 197.321 72.45 198.821 72.45ZM230.143 76.7C227.776 76.7 225.626 76.2 223.693 75.2C221.793 74.2 220.276 72.75 219.143 70.85C218.043 68.95 217.493 66.6667 217.493 64V63.35C217.493 60.6833 218.043 58.4167 219.143 56.55C220.276 54.65 221.793 53.2 223.693 52.2C225.626 51.1667 227.776 50.65 230.143 50.65C232.509 50.65 234.526 51.0833 236.193 51.95C237.859 52.8167 239.193 53.9667 240.193 55.4C241.226 56.8333 241.893 58.4167 242.193 60.15L237.193 61.2C237.026 60.1 236.676 59.1 236.143 58.2C235.609 57.3 234.859 56.5833 233.893 56.05C232.926 55.5167 231.709 55.25 230.243 55.25C228.809 55.25 227.509 55.5833 226.343 56.25C225.209 56.8833 224.309 57.8167 223.643 59.05C222.976 60.25 222.643 61.7167 222.643 63.45V63.9C222.643 65.6333 222.976 67.1167 223.643 68.35C224.309 69.5833 225.209 70.5167 226.343 71.15C227.509 71.7833 228.809 72.1 230.243 72.1C232.409 72.1 234.059 71.55 235.193 70.45C236.326 69.3167 237.043 67.8833 237.343 66.15L242.343 67.3C241.943 69 241.226 70.5667 240.193 72C239.193 73.4333 237.859 74.5833 236.193 75.45C234.526 76.2833 232.509 76.7 230.143 76.7ZM259.582 76.7C257.082 76.7 254.899 76.1833 253.032 75.15C251.166 74.0833 249.699 72.6 248.632 70.7C247.599 68.7667 247.082 66.5333 247.082 64V63.4C247.082 60.8333 247.599 58.6 248.632 56.7C249.666 54.7667 251.099 53.2833 252.932 52.25C254.799 51.1833 256.949 50.65 259.382 50.65C261.749 50.65 263.816 51.1833 265.582 52.25C267.382 53.2833 268.782 54.7333 269.782 56.6C270.782 58.4667 271.282 60.65 271.282 63.15V65.1H252.332C252.399 67.2667 253.116 69 254.482 70.3C255.882 71.5667 257.616 72.2 259.682 72.2C261.616 72.2 263.066 71.7667 264.032 70.9C265.032 70.0333 265.799 69.0333 266.332 67.9L270.582 70.1C270.116 71.0333 269.432 72.0167 268.532 73.05C267.666 74.0833 266.516 74.95 265.082 75.65C263.649 76.35 261.816 76.7 259.582 76.7ZM252.382 61.15H266.032C265.899 59.2833 265.232 57.8333 264.032 56.8C262.832 55.7333 261.266 55.2 259.332 55.2C257.399 55.2 255.816 55.7333 254.582 56.8C253.382 57.8333 252.649 59.2833 252.382 61.15Z" fill="url(#paint0_linear_1_6)"/>
<defs>
<linearGradient id="paint0_linear_1_6" x1="292.5" y1="27" x2="-15.5" y2="27" gradientUnits="userSpaceOnUse">
<stop stop-color="#385DC3"/>
<stop offset="1" stop-color="#20C850"/>
</linearGradient>
</defs>
</svg>
